<?xml version="1.0" encoding="utf-8"?>
<svg version="1.1" id="Warstwa_1" xmlns="http://www.w3.org/2000/svg" xmlns:xlink="http://www.w3.org/1999/xlink" x="0px" y="0px"
	 viewBox="0 0 566.9 425.2" style="enable-background:new 0 0 566.9 425.2;" xml:space="preserve">
<style type="text/css">
	.st0{fill:#0D88A7;}
	.st1{fill:#FFFFFF;}
</style>
<g>
	<path class="st0" d="M490.2,136.4c-14.6-2.2-28.9-0.8-42,3.7c-5.5-37.8-35-69.2-74.7-75.3c-22.9-3.5-45.1,2-62.9,13.9
		c-9.7-9.8-22.6-16.7-37.2-18.9c-26.3-4-51.3,7.8-65.4,28.4c-2-0.4-4.1-0.8-6.1-1.1c-52-8-100.8,24-115.4,73
		c-30.6,1.6-56.9,24.5-61.7,55.9c-5.5,36.1,19.2,69.8,55.3,75.3c2.8,0.4,5.6,0.7,8.3,0.7c-0.2,1.2-0.5,2.3-0.6,3.5
		c-5.5,36.1,19.2,69.8,55.3,75.3c27,4.2,52.8-8.7,66.3-30.6c13.2,22,35.6,38.1,62.9,42.3c26,4,51.1-3.7,70-19.2
		c4.8,1.6,9.8,2.9,15,3.7c42.3,6.5,82.2-17.9,96.8-56.3c3,0.8,6.1,1.4,9.2,1.9c48.7,7.5,94.2-25.9,101.6-74.6
		C572.2,189.4,538.8,143.9,490.2,136.4z"/>
	<path class="st1" d="M468.2,116.6c-14.6-2.2-28.9-0.8-42,3.7c-5.5-37.8-35-69.2-74.7-75.3c-22.9-3.5-45.1,2-62.9,13.9
		c-9.7-9.8-22.6-16.7-37.2-18.9c-26.3-4-51.3,7.8-65.4,28.4c-2-0.4-4.1-0.8-6.1-1.1c-52-8-100.8,24-115.4,73
		c-30.6,1.6-56.9,24.5-61.7,55.9c-5.5,36.1,19.2,69.8,55.3,75.3c2.8,0.4,5.6,0.7,8.3,0.7c-0.2,1.2-0.5,2.3-0.6,3.5
		c-5.5,36.1,19.2,69.8,55.3,75.3c27,4.2,52.8-8.7,66.3-30.6c13.2,22,35.6,38.1,62.9,42.3c26,4,51.1-3.7,70-19.2
		c4.8,1.6,9.8,2.9,15,3.7c42.3,6.5,82.2-17.9,96.8-56.3c3,0.8,6.1,1.4,9.2,1.9c48.7,7.5,94.2-25.9,101.6-74.6
		C550.2,169.6,516.8,124.1,468.2,116.6z"/>
</g>
</svg>
